<svg width="42" height="43" fill="none" xmlns="http://www.w3.org/2000/svg"><path d="M29.087 13.662A21.229 21.229 0 0 0 23.75 12a.114.114 0 0 0-.088.037c-.225.413-.487.95-.662 1.363-1.989-.3-4.011-.3-6 0-.175-.425-.438-.95-.675-1.363-.013-.025-.05-.037-.088-.037a21.39 21.39 0 0 0-5.337 1.662c-.013 0-.025.013-.038.025-3.4 5.088-4.337 10.038-3.875 14.938 0 .025.013.05.038.063 2.25 1.65 4.412 2.65 6.55 3.312.037.013.075 0 .087-.025.5-.688.95-1.413 1.338-2.175.025-.05 0-.1-.05-.113-.713-.274-1.388-.6-2.05-.975-.05-.024-.05-.1-.013-.137.138-.1.275-.212.413-.313a.077.077 0 0 1 .087-.012c4.3 1.962 8.938 1.962 13.188 0a.077.077 0 0 1 .087.012c.138.113.275.213.413.325.05.038.05.113-.013.138-.65.387-1.337.7-2.05.975-.05.012-.062.075-.05.113.4.762.85 1.487 1.338 2.175.037.012.075.025.112.012 2.15-.663 4.313-1.663 6.563-3.313a.069.069 0 0 0 .037-.062c.55-5.663-.912-10.575-3.875-14.938-.012-.012-.025-.024-.05-.024ZM15.65 25.637c-1.288 0-2.363-1.187-2.363-2.65 0-1.462 1.05-2.65 2.363-2.65 1.325 0 2.375 1.2 2.362 2.65 0 1.463-1.05 2.65-2.362 2.65Zm8.712 0c-1.287 0-2.362-1.187-2.362-2.65 0-1.462 1.05-2.65 2.362-2.65 1.325 0 2.375 1.2 2.363 2.65 0 1.463-1.038 2.65-2.363 2.65Z" fill="#EBDA9C" fill-opacity=".67"/><path d="M41 21.5C41 32.844 32.024 42 21 42S1 32.844 1 21.5 9.976 1 21 1s20 9.156 20 20.5Z" stroke="#EBDA9C" stroke-opacity=".67" stroke-width="2"/></svg>