<svg width="42" height="43" viewBox="0 0 42 43" fill="none" xmlns="http://www.w3.org/2000/svg">
<path d="M30.0874 13.6625C28.4249 12.8875 26.6249 12.325 24.7499 12C24.7335 11.9995 24.7171 12.0026 24.702 12.009C24.6869 12.0155 24.6734 12.0252 24.6624 12.0375C24.4374 12.45 24.1749 12.9875 23.9999 13.4C22.0112 13.1 19.9887 13.1 17.9999 13.4C17.8249 12.975 17.5624 12.45 17.3249 12.0375C17.3124 12.0125 17.2749 12 17.2374 12C15.3624 12.325 13.5749 12.8875 11.8999 13.6625C11.8874 13.6625 11.8749 13.675 11.8624 13.6875C8.4624 18.775 7.5249 23.725 7.9874 28.625C7.9874 28.65 7.9999 28.675 8.0249 28.6875C10.2749 30.3375 12.4374 31.3375 14.5749 32C14.6124 32.0125 14.6499 32 14.6624 31.975C15.1624 31.2875 15.6124 30.5625 15.9999 29.8C16.0249 29.75 15.9999 29.7 15.9499 29.6875C15.2374 29.4125 14.5624 29.0875 13.8999 28.7125C13.8499 28.6875 13.8499 28.6125 13.8874 28.575C14.0249 28.475 14.1624 28.3625 14.2999 28.2625C14.3249 28.2375 14.3624 28.2375 14.3874 28.25C18.6874 30.2125 23.3249 30.2125 27.5749 28.25C27.5999 28.2375 27.6374 28.2375 27.6624 28.2625C27.7999 28.375 27.9374 28.475 28.0749 28.5875C28.1249 28.625 28.1249 28.7 28.0624 28.725C27.4124 29.1125 26.7249 29.425 26.0124 29.7C25.9624 29.7125 25.9499 29.775 25.9624 29.8125C26.3624 30.575 26.8124 31.3 27.2999 31.9875C27.3374 32 27.3749 32.0125 27.4124 32C29.5624 31.3375 31.7249 30.3375 33.9749 28.6875C33.9999 28.675 34.0124 28.65 34.0124 28.625C34.5624 22.9625 33.0999 18.05 30.1374 13.6875C30.1249 13.675 30.1124 13.6625 30.0874 13.6625ZM16.6499 25.6375C15.3624 25.6375 14.2874 24.45 14.2874 22.9875C14.2874 21.525 15.3374 20.3375 16.6499 20.3375C17.9749 20.3375 19.0249 21.5375 19.0124 22.9875C19.0124 24.45 17.9624 25.6375 16.6499 25.6375ZM25.3624 25.6375C24.0749 25.6375 22.9999 24.45 22.9999 22.9875C22.9999 21.525 24.0499 20.3375 25.3624 20.3375C26.6874 20.3375 27.7374 21.5375 27.7249 22.9875C27.7249 24.45 26.6874 25.6375 25.3624 25.6375Z" fill="#EBDA9C"/>
<path d="M41 21.5C41 32.8442 32.0236 42 21 42C9.97636 42 1 32.8442 1 21.5C1 10.1559 9.97636 1 21 1C32.0236 1 41 10.1559 41 21.5Z" stroke="#EBDA9C" stroke-width="2"/>
</svg>
