<svg width="68" height="68" viewBox="0 0 68 68" fill="none" xmlns="http://www.w3.org/2000/svg">
<path d="M63.9907 48.198C62.7724 49.7365 59.7889 50.833 59.7889 50.833L37.5982 58.8145V52.9268L53.9296 47.0987C55.7826 46.4357 56.0659 45.495 54.5614 45.002C53.0569 44.509 50.3341 44.6478 48.4782 45.3165L37.5982 49.1528V43.047L38.2244 42.8317C38.2244 42.8317 41.3694 41.7182 45.7894 41.228C50.2122 40.7407 55.6267 41.296 59.8767 42.9082C64.6651 44.424 65.2034 46.6595 63.9907 48.198ZM39.7091 38.1737V23.1258C39.7091 21.3578 39.3832 19.7315 37.7257 19.2725C36.4592 18.8645 35.6716 20.0432 35.6716 21.8083V59.5002L25.5197 56.273V11.3335C29.8349 12.1353 36.1249 14.0337 39.5051 15.1727C48.1042 18.1278 51.0197 21.8083 51.0197 30.0958C51.0197 38.1737 46.0387 41.2365 39.7091 38.1765M6.89056 52.3148C1.97189 50.9265 1.15306 48.0365 3.39423 46.3733C5.46539 44.8377 8.99006 43.6817 8.99006 43.6817L23.5477 38.4967V44.407L13.0701 48.1612C11.2199 48.8242 10.9366 49.7648 12.4382 50.2578C13.9456 50.7537 16.6684 50.612 18.5214 49.9462L23.5477 48.1215V53.4057L22.5447 53.5757C17.5184 54.3973 12.1662 54.0545 6.89056 52.3148Z" fill="white" fill-opacity="0.67"/>
</svg>
