<svg width="58" height="50" viewBox="0 0 58 50" fill="none" xmlns="http://www.w3.org/2000/svg">
<g clip-path="url(#clip0_83_48)">
<path d="M51.2031 14.7786C51.2031 16.9705 50.4317 18.8422 48.889 20.3939C47.3462 21.9455 45.4851 22.7214 43.3058 22.7214C41.1265 22.7214 39.2654 21.9455 37.7227 20.3939C36.1799 18.8422 35.4085 16.9705 35.4085 14.7786C35.4085 12.5868 36.1799 10.7151 37.7227 9.16341C39.2654 7.61176 41.1265 6.83594 43.3058 6.83594C45.4851 6.83594 47.3462 7.61176 48.889 9.16341C50.4317 10.7151 51.2031 12.5868 51.2031 14.7786ZM26.2812 38.9323C26.2812 36.6753 25.4937 34.7548 23.9185 33.1706C22.3434 31.5864 20.4338 30.7943 18.1897 30.7943C17.6071 30.7943 17.0246 30.8594 16.442 30.9896L19.808 32.3568C21.4695 33.0295 22.6509 34.1851 23.3521 35.8236C24.0534 37.462 24.0696 39.1059 23.4007 40.7552C22.7318 42.4262 21.5774 43.6089 19.9375 44.3034C18.2976 44.9978 16.6577 45.0087 15.0179 44.3359C14.5647 44.1623 13.8958 43.8965 13.0112 43.5384C12.1265 43.1803 11.4684 42.9145 11.0368 42.7409C11.7273 44.043 12.7091 45.0901 13.9821 45.8822C15.2552 46.6743 16.6577 47.0703 18.1897 47.0703C20.4338 47.0703 22.3434 46.2782 23.9185 44.694C25.4937 43.1098 26.2812 41.1892 26.2812 38.9323ZM53.1451 14.8112C53.1451 12.0768 52.1795 9.7385 50.2483 7.79622C48.3172 5.85395 45.9922 4.88281 43.2734 4.88281C40.5331 4.88281 38.1974 5.85395 36.2662 7.79622C34.335 9.7385 33.3694 12.0768 33.3694 14.8112C33.3694 17.5673 34.335 19.911 36.2662 21.8424C38.1974 23.7739 40.5331 24.7396 43.2734 24.7396C45.9922 24.7396 48.3172 23.7739 50.2483 21.8424C52.1795 19.911 53.1451 17.5673 53.1451 14.8112ZM58 14.8112C58 18.9128 56.5597 22.4067 53.6791 25.293C50.7985 28.1793 47.33 29.6224 43.2734 29.6224L29.1295 40.0065C28.8705 42.806 27.6946 45.1714 25.6016 47.1029C23.5086 49.0343 21.0379 50 18.1897 50C15.5789 50 13.2701 49.1753 11.2634 47.526C9.2567 45.8767 7.98363 43.7934 7.4442 41.276L0 38.2812V24.3164L12.5904 29.4271C14.295 28.3854 16.1615 27.8646 18.1897 27.8646C18.4702 27.8646 18.8478 27.8863 19.3225 27.9297L28.5145 14.681C28.5577 10.6228 30.0195 7.16146 32.9001 4.29688C35.7807 1.43229 39.2385 0 43.2734 0C47.33 0 50.7985 1.44857 53.6791 4.3457C56.5597 7.24284 58 10.7313 58 14.8112Z" fill="white" fill-opacity="0.67"/>
</g>
<defs>
<clipPath id="clip0_83_48">
<rect width="58" height="50" fill="white"/>
</clipPath>
</defs>
</svg>
