<svg width="54" height="54" viewBox="0 0 54 54" fill="none" xmlns="http://www.w3.org/2000/svg">
<g clip-path="url(#clip0_83_54)">
<path d="M31.896 54H40.1625C47.7585 54 54 47.7585 54 40.1625V13.8375C54 6.24375 47.7585 0 40.1625 0H31.725C31.5585 0 31.3875 0.1665 31.3875 0.3375V53.6625C31.3853 53.8335 31.5562 54 31.896 54ZM42.1875 24.3022C45.2272 24.3022 47.5853 26.8335 47.5853 29.6978C47.5853 32.7397 45.054 35.0978 42.1875 35.0978C39.15 35.0978 36.7875 32.7375 36.7875 29.6978C36.6188 26.6625 39.15 24.3022 42.1875 24.3022ZM25.65 0H13.8375C6.24375 0 0 6.24375 0 13.8375V40.1625C0 47.7585 6.24375 54 13.8375 54H25.65C25.8165 54 25.9875 53.8335 25.9875 53.6647V0.3375C25.9897 0.1665 25.8187 0 25.65 0ZM21.771 49.6147H13.8375C12.5956 49.6168 11.3656 49.3737 10.2178 48.8995C9.07009 48.4252 8.02726 47.729 7.14912 46.8509C6.27099 45.9727 5.57482 44.9299 5.10053 43.7822C4.62625 42.6344 4.38318 41.4044 4.38525 40.1625V13.8375C4.38318 12.5956 4.62625 11.3656 5.10053 10.2178C5.57482 9.07009 6.27099 8.02726 7.14912 7.14912C8.02726 6.27099 9.07009 5.57482 10.2178 5.10053C11.3656 4.62625 12.5956 4.38318 13.8375 4.38525H21.6L21.771 49.6147ZM8.4375 16.1978C8.4375 19.0665 10.6313 21.2603 13.5 21.2603C16.3687 21.2603 18.5625 19.0665 18.5625 16.1978C18.5625 13.3335 16.3687 11.1353 13.5 11.1353C10.6313 11.1353 8.4375 13.3335 8.4375 16.1978Z" fill="white" fill-opacity="0.67"/>
</g>
<defs>
<clipPath id="clip0_83_54">
<rect width="54" height="54" fill="white"/>
</clipPath>
</defs>
</svg>
