<svg width="42" height="43" fill="none" xmlns="http://www.w3.org/2000/svg"><path d="M33.14 14.5c-.931.438-1.934.725-2.973.863a5.346 5.346 0 0 0 2.271-2.976 10.234 10.234 0 0 1-3.286 1.313c-.955-1.075-2.296-1.7-3.819-1.7-2.84 0-5.16 2.4-5.16 5.363 0 .425.05.837.134 1.224-4.302-.224-8.132-2.362-10.682-5.6a5.446 5.446 0 0 0-.7 2.688c0 1.863.905 3.512 2.307 4.45-.858 0-1.655-.25-2.356-.625v.038c0 2.6 1.788 4.774 4.157 5.262a4.911 4.911 0 0 1-2.333.087 5.35 5.35 0 0 0 1.838 2.667 5.061 5.061 0 0 0 2.996 1.059 10.08 10.08 0 0 1-6.44 2.3c-.411 0-.822-.026-1.233-.076a14.322 14.322 0 0 0 7.95 2.413c9.522 0 14.754-8.175 14.754-15.262 0-.238 0-.463-.012-.7 1.015-.75 1.885-1.7 2.586-2.788Z" fill="#EBDA9C" fill-opacity=".67"/><path d="M41 21.5C41 32.844 32.024 42 21 42S1 32.844 1 21.5 9.976 1 21 1s20 9.156 20 20.5Z" stroke="#EBDA9C" stroke-opacity=".67" stroke-width="2"/></svg>