<svg width="58" height="58" viewBox="0 0 58 58" fill="none" xmlns="http://www.w3.org/2000/svg">
<path d="M13.0985 47.1928C17.4969 51.0505 23.1498 53.1742 29.0002 53.1668C34.8544 53.1749 40.5113 51.0513 44.9139 47.1928C48.6936 43.3407 36.2212 29.6527 29.0002 24.1982C21.7864 29.6527 9.30436 43.3407 13.0937 47.1928M35.5687 18.1807C40.6026 24.1427 50.639 38.9496 47.8043 44.1841C51.2827 39.8908 53.1764 34.5305 53.1669 29.005C53.171 25.8057 52.5373 22.6377 51.3028 19.6862C50.0684 16.7347 48.2579 14.0589 45.9773 11.8152C45.9773 11.8152 45.9217 11.7717 45.8129 11.7307C45.631 11.6681 45.4398 11.6371 45.2474 11.6388C44.0536 11.6388 41.2479 12.5161 35.5687 18.1807ZM12.1923 11.7331C12.0763 11.7742 12.0279 11.8152 12.0183 11.8177C9.73851 14.0617 7.92893 16.7377 6.6953 19.6892C5.46167 22.6407 4.82875 25.8085 4.83352 29.0074C4.83352 34.7567 6.84419 40.0298 10.1913 44.1792C7.37344 38.9327 17.4026 24.1378 22.4389 18.1807C16.7598 12.5137 13.9492 11.6437 12.7602 11.6437C12.5673 11.6371 12.375 11.6692 12.1947 11.7379L12.1923 11.7331ZM29.0002 11.9844C29.0002 11.9844 23.0697 8.51408 18.4394 8.34975C16.6196 8.2845 15.5079 8.94425 15.375 9.03125C19.696 6.13608 24.2877 4.8335 28.9712 4.8335H29.0002C33.7006 4.8335 38.2754 6.13366 42.6254 9.03125C42.49 8.93941 41.388 8.28208 39.5659 8.34975C34.9331 8.51408 29.0002 11.9747 29.0002 11.9747V11.9844Z" fill="white" fill-opacity="0.67"/>
</svg>
