<svg width="42" height="43" fill="none" xmlns="http://www.w3.org/2000/svg"><path d="M18.36 25.75 24.81 22l-6.45-3.75v7.5Zm14.367-9.787c.162.587.274 1.374.348 2.374.087 1 .124 1.863.124 2.613l.075 1.05c0 2.738-.199 4.75-.547 6.038-.31 1.125-1.031 1.85-2.15 2.162-.584.163-1.653.275-3.294.35a82.363 82.363 0 0 1-4.462.125l-1.976.075c-5.207 0-8.451-.2-9.731-.55-1.119-.313-1.84-1.037-2.15-2.162-.162-.588-.274-1.375-.348-2.375-.087-1-.125-1.863-.125-2.613L8.417 22c0-2.738.199-4.75.547-6.037.31-1.125 1.031-1.85 2.15-2.163.584-.163 1.653-.275 3.293-.35a82.363 82.363 0 0 1 4.462-.125l1.976-.075c5.208 0 8.452.2 9.732.55 1.118.313 1.84 1.037 2.15 2.162Z" fill="#EBDA9C" fill-opacity=".67"/><path d="M41 21.5C41 32.844 32.024 42 21 42S1 32.844 1 21.5 9.976 1 21 1s20 9.156 20 20.5Z" stroke="#EBDA9C" stroke-opacity=".67" stroke-width="2"/></svg>