<svg width="42" height="43" viewBox="0 0 42 43" fill="none" xmlns="http://www.w3.org/2000/svg">
<path d="M30.0876 13.6626C28.4251 12.8876 26.6251 12.3251 24.7501 12.0001C24.7337 11.9995 24.7174 12.0026 24.7022 12.0091C24.6871 12.0156 24.6736 12.0253 24.6626 12.0376C24.4376 12.4501 24.1751 12.9876 24.0001 13.4001C22.0114 13.1001 19.9889 13.1001 18.0001 13.4001C17.8251 12.9751 17.5626 12.4501 17.3251 12.0376C17.3126 12.0126 17.2751 12.0001 17.2376 12.0001C15.3626 12.3251 13.5751 12.8876 11.9001 13.6626C11.8876 13.6626 11.8751 13.6751 11.8626 13.6876C8.46265 18.7751 7.52515 23.7251 7.98765 28.6251C7.98765 28.6501 8.00015 28.6751 8.02515 28.6876C10.2751 30.3376 12.4376 31.3376 14.5751 32.0001C14.6126 32.0126 14.6501 32.0001 14.6626 31.9751C15.1626 31.2876 15.6126 30.5626 16.0001 29.8001C16.0251 29.7501 16.0001 29.7001 15.9501 29.6876C15.2376 29.4126 14.5626 29.0876 13.9001 28.7126C13.8501 28.6876 13.8501 28.6126 13.8876 28.5751C14.0251 28.4751 14.1626 28.3626 14.3001 28.2626C14.3251 28.2376 14.3626 28.2376 14.3876 28.2501C18.6876 30.2126 23.3251 30.2126 27.5751 28.2501C27.6001 28.2376 27.6376 28.2376 27.6626 28.2626C27.8001 28.3751 27.9376 28.4751 28.0751 28.5876C28.1251 28.6251 28.1251 28.7001 28.0626 28.7251C27.4126 29.1126 26.7251 29.4251 26.0126 29.7001C25.9626 29.7126 25.9501 29.7751 25.9626 29.8126C26.3626 30.5751 26.8126 31.3001 27.3001 31.9876C27.3376 32.0001 27.3751 32.0126 27.4126 32.0001C29.5626 31.3376 31.7251 30.3376 33.9751 28.6876C34.0001 28.6751 34.0126 28.6501 34.0126 28.6251C34.5626 22.9626 33.1001 18.0501 30.1376 13.6876C30.1251 13.6751 30.1126 13.6626 30.0876 13.6626ZM16.6501 25.6376C15.3626 25.6376 14.2876 24.4501 14.2876 22.9876C14.2876 21.5251 15.3376 20.3376 16.6501 20.3376C17.9751 20.3376 19.0251 21.5376 19.0126 22.9876C19.0126 24.4501 17.9626 25.6376 16.6501 25.6376ZM25.3626 25.6376C24.0751 25.6376 23.0001 24.4501 23.0001 22.9876C23.0001 21.5251 24.0501 20.3376 25.3626 20.3376C26.6876 20.3376 27.7376 21.5376 27.7251 22.9876C27.7251 24.4501 26.6876 25.6376 25.3626 25.6376Z" fill="white"/>
<path d="M41 21.5C41 32.8442 32.0236 42 21 42C9.97636 42 1 32.8442 1 21.5C1 10.1559 9.97636 1 21 1C32.0236 1 41 10.1559 41 21.5Z" stroke="white" stroke-width="2"/>
</svg>
