<svg width="42" height="43" viewBox="0 0 42 43" fill="none" xmlns="http://www.w3.org/2000/svg">
<path d="M18.3594 25.75L24.8098 22L18.3594 18.25V25.75ZM32.7268 15.9625C32.8884 16.55 33.0002 17.3375 33.0748 18.3375C33.1618 19.3375 33.1991 20.2 33.1991 20.95L33.2736 22C33.2736 24.7375 33.0748 26.75 32.7268 28.0375C32.4161 29.1625 31.6952 29.8875 30.5766 30.2C29.9925 30.3625 28.9236 30.475 27.2831 30.55C25.6674 30.6375 24.1884 30.675 22.8212 30.675L20.8451 30.75C15.6375 30.75 12.3936 30.55 11.1135 30.2C9.99493 29.8875 9.27408 29.1625 8.96336 28.0375C8.80179 27.45 8.68993 26.6625 8.61536 25.6625C8.52836 24.6625 8.49108 23.8 8.49108 23.05L8.4165 22C8.4165 19.2625 8.61536 17.25 8.96336 15.9625C9.27408 14.8375 9.99493 14.1125 11.1135 13.8C11.6976 13.6375 12.7665 13.525 14.4071 13.45C16.0228 13.3625 17.5018 13.325 18.8689 13.325L20.8451 13.25C26.0526 13.25 29.2965 13.45 30.5766 13.8C31.6952 14.1125 32.4161 14.8375 32.7268 15.9625Z" fill="white"/>
<path d="M41 21.5C41 32.8442 32.0236 42 21 42C9.97636 42 1 32.8442 1 21.5C1 10.1559 9.97636 1 21 1C32.0236 1 41 10.1559 41 21.5Z" stroke="white" stroke-width="2"/>
</svg>
